#!OML:ASF H:\Terrain\Patient Classification 1\Takeo\Monday\TakeoMonday.ASF
:FULLY-SPECIFIED
:DEGREES
79
root 8.70593 17.1698 -6.10134 2.22282 -0.134576 1.6089
lowerback 9.46671 -3.47219 -2.84213
upperback 1.10699 -4.8934 0.285229
thorax -3.87868 -2.37968 2.49582
lowerneck -12.8356 2.81412 -1.42481
upperneck -9.01529 3.86438 -0.0908693
head -0.736204 1.95656 0.317885
rclavicle -8.18806e-014 -1.35919e-014
rhumerus -73.4769 14.9402 -93.2494
rradius 74.4519
rwrist -8.99991
rhand -40.8674 51.2181
rfingers 7.12502
rthumb -13.8038 21.6961
lclavicle -8.18806e-014 -1.35919e-014
lhumerus -21.0699 -22.7096 82.2093
lradius 116.3
lwrist 27.0695
lhand -34.3886 1.1151
lfingers 7.12502
lthumb -7.55463 30.9602
rfemur -45.0438 8.79358 20.4867
rtibia 91.4793
rfoot -13.1233 -10.7137
rtoes -20.8848
lfemur 7.35379 -6.52981 -31.1829
ltibia 30.5315
lfoot -7.10773 2.46361
ltoes -20.2201
80
root 8.69937 17.2996 -5.67384 2.16578 -0.347398 1.16686
lowerback 9.21377 -3.56973 -2.44081
upperback 1.01926 -4.96651 0.539284
thorax -3.83628 -2.42112 2.52949
lowerneck -12.9018 2.95272 -1.90226
upperneck -8.64759 4.12212 0.282803
head -0.629933 2.09848 0.524276
rclavicle 4.36394e-015 -1.16041e-014
rhumerus -74.2273 14.5749 -93.0969
rradius 74.5999
rwrist -9.70422
rhand -40.7864 51.0538
rfingers 7.12502
rthumb -13.7258 21.5265
lclavicle 4.36394e-015 -1.16041e-014
lhumerus -21.7517 -23.1699 82.5833
lradius 116.627
lwrist 27.0167
lhand -34.1903 0.734881
lfingers 7.12502
lthumb -7.36328 30.5867
rfemur -44.9863 9.67896 20.8837
rtibia 87.8702
rfoot -13.7583 -10.9292
rtoes -21.0453
lfemur 9.14665 -5.99504 -30.5453
ltibia 28.8491
lfoot -2.60369 2.25425
ltoes -21.6827
81
root 8.68747 17.4161 -5.23456 2.02974 -0.537437 1.26125
lowerback 8.81127 -3.63886 -2.62671
upperback 1.02491 -5.06257 0.661046
thorax -3.57375 -2.47204 2.73759
lowerneck -13.1173 3.22305 -1.97663
upperneck -8.0716 4.48951 0.119313
head -0.418155 2.27997 0.508714
rclavicle -3.17807e-014 1.66482e-014
rhumerus -74.9795 14.0878 -92.8406
rradius 75.017
rwrist -10.2578
rhand -40.8307 50.8381
rfingers 7.12502
rthumb -13.7685 21.3137
lclavicle -3.17807e-014 1.66482e-014
lhumerus -22.5801 -23.5349 83.2783
lradius 116.892
lwrist 26.963
lhand -34.0381 0.554827
lfingers 7.12502
lthumb -7.21635 30.4118
rfemur -44.6109 10.2493 20.727
rtibia 84.1032
rfoot -14.746 -11.466
rtoes -20.987
lfemur 10.8928 -5.36694 -30.4396
ltibia 27.268
lfoot 2.13068 2.29163
ltoes -22.3694
82
root 8.68021 17.5303 -4.79085 1.84465 -0.517288 1.675
lowerback 8.44136 -3.75277 -2.99314
upperback 0.978896 -5.24019 0.650298
thorax -3.37288 -2.56012 2.92064
lowerneck -13.5575 3.47204 -1.91151
upperneck -7.29424 4.81276 -0.243535
head -0.097745 2.43096 0.418087
rclavicle 3.43525e-014 -7.95139e-015
rhumerus -75.9239 13.5108 -92.6051
rradius 75.5374
rwrist -10.4523
rhand -40.5661 50.0917
rfingers 7.12502
rthumb -13.5135 20.5502
lclavicle 3.43525e-014 -7.95139e-015
lhumerus -23.6174 -23.9358 84.209
lradius 116.995
lwrist 26.6148
lhand -33.8696 0.807903
lfingers 7.12502
lthumb -7.05369 30.6704
rfemur -43.9011 10.4181 20.2042
rtibia 80.0873
rfoot -15.8009 -11.9774
rtoes -21.3622
lfemur 12.5102 -4.95066 -30.6429
ltibia 25.8849
lfoot 6.94607 2.83409
ltoes -21.3502
83
root 8.67727 17.657 -4.35026 1.69707 -0.370677 1.60171
lowerback 8.20327 -3.90475 -2.80876
upperback 0.887389 -5.41713 0.744619
thorax -3.33117 -2.65029 2.91854
lowerneck -14.0925 3.5289 -1.59677
upperneck -6.49856 4.85102 -0.70035
head 0.259622 2.42941 0.252109
rclavicle -1.56667e-014 9.93923e-017
rhumerus -76.6744 12.9023 -92.4186
rradius 75.8205
rwrist -10.5818
rhand -40.0468 49.486
rfingers 7.12502
rthumb -13.0129 19.9119
lclavicle -1.56667e-014 9.93923e-017
lhumerus -24.8958 -24.3743 85.1193
lradius 116.948
lwrist 26.0227
lhand -33.7576 0.852128
lfingers 7.12502
lthumb -6.94558 30.7182
rfemur -42.9501 10.5628 20.19
rtibia 75.7582
rfoot -16.5075 -12.3617
rtoes -21.1893
lfemur 13.9241 -4.73025 -30.27
ltibia 24.7569
lfoot 11.159 3.10811
ltoes -20.9177
84
root 8.67163 17.78 -3.91538 1.69207 -0.315775 1.14255
lowerback 7.87298 -4.02403 -2.26852
upperback 0.769212 -5.51535 0.935242
thorax -3.29533 -2.70535 2.80454
lowerneck -14.0535 3.43712 -1.76856
upperneck -6.22316 4.7578 -0.567145
head 0.3355 2.38591 0.321128
rclavicle 5.41688e-015 -3.97569e-016
rhumerus -77.2688 12.1907 -92.2401
rradius 76.1395
rwrist -10.7531
rhand -39.803 49.4464
rfingers 7.12502
rthumb -12.7779 19.8574
lclavicle 5.41688e-015 -3.97569e-016
lhumerus -26.0792 -24.9024 85.797
lradius 116.843
lwrist 25.9579
lhand -33.7576 0.954729
lfingers 7.12502
lthumb -6.94555 30.8208
rfemur -42.0844 10.856 20.5805
rtibia 71.2816
rfoot -17.0787 -12.6095
rtoes -19.9056
lfemur 15.0171 -4.49592 -29.4748
ltibia 24.0836
lfoot 14.3359 2.37309
ltoes -22.1255
85
root 8.66343 17.8897 -3.47894 1.79036 -0.325135 0.985594
lowerback 7.31455 -4.04066 -1.95514
upperback 0.655031 -5.50206 0.957983
thorax -3.13064 -2.70557 2.61293
lowerneck -13.8108 3.35561 -2.62342
upperneck -6.05318 4.77975 0.369447
head 0.310897 2.42783 0.752072
rclavicle -8.60241e-014 1.13307e-014
rhumerus -77.8107 11.1794 -92.0942
rradius 76.6125
rwrist -10.9925
rhand -39.7754 49.3016
rfingers 7.12502
rthumb -12.7512 19.711
lclavicle -8.60241e-014 1.13307e-014
lhumerus -27.0667 -25.7773 86.3868
lradius 116.767
lwrist 26.576
lhand -33.9416 1.26111
lfingers 7.12502
lthumb -7.12315 31.1212
rfemur -41.2973 11.0364 20.6682
rtibia 66.7835
rfoot -17.7053 -12.7547
rtoes -19.1494
lfemur 15.7502 -4.30806 -29.0636
ltibia 24.0342
lfoot 16.0832 2.08474
ltoes -21.665
86
root 8.65694 17.98 -3.03933 1.90333 -0.241846 1.39443
lowerback 6.65242 -4.00654 -2.1265
upperback 0.587823 -5.4644 0.810539
thorax -2.83174 -2.6911 2.50125
lowerneck -14.2212 3.31352 -2.46985
upperneck -5.32257 4.71547 0.0986173
head 0.624476 2.38213 0.661991
rclavicle 1.87603e-014 -3.97569e-015
rhumerus -78.1351 10.0556 -91.802
rradius 77.1618
rwrist -11.4093
rhand -39.6329 49.342
rfingers 7.12502
rthumb -12.6139 19.7429
lclavicle 1.87603e-014 -3.97569e-015
lhumerus -27.9881 -26.7049 87.1668
lradius 116.734
lwrist 27.7427
lhand -33.9668 1.40589
lfingers 7.12502
lthumb -7.14757 31.2652
rfemur -40.4126 11.0054 20.1204
rtibia 62.3336
rfoot -18.4831 -12.6234
rtoes -18.371
lfemur 16.2234 -4.1755 -29.337
ltibia 24.5837
lfoot 16.4293 2.94343
ltoes -19.6809
87
root 8.65341 18.0445 -2.60636 2.07226 -0.0824008 1.91449
lowerback 5.99192 -4.04103 -2.39958
upperback 0.526815 -5.5217 0.644612
thorax -2.51405 -2.72331 2.43432
lowerneck -15.1287 3.29073 -1.08488
upperneck -4.20956 4.50791 -1.55814
head 1.21496 2.2071 -0.0607329
rclavicle 2.46493e-014 8.74653e-015
rhumerus -78.397 9.1015 -91.5004
rradius 77.792
rwrist -11.5661
rhand -39.2496 49.3547
rfingers 7.12502
rthumb -12.2443 19.7331
lclavicle 2.46493e-014 8.74653e-015
lhumerus -29.0072 -27.3152 87.9651
lradius 116.639
lwrist 28.721
lhand -33.6566 1.4398
lfingers 7.12502
lthumb -6.84807 31.309
rfemur -39.5781 10.906 19.4412
rtibia 57.9837
rfoot -19.0056 -12.3518
rtoes -18.8527
lfemur 16.4446 -3.97019 -29.7344
ltibia 25.687
lfoot 15.6974 3.61952
ltoes -19.7958
88
root 8.65511 18.0976 -2.17888 2.23224 0.166704 2.44693
lowerback 5.4985 -4.12201 -2.56445
upperback 0.410832 -5.63588 0.418621
thorax -2.35909 -2.78142 2.26626
lowerneck -15.4451 3.33874 -0.672682
upperneck -3.56207 4.52722 -1.98099
head 1.50731 2.19224 -0.248683
rclavicle -7.95139e-016 2.5842e-015
rhumerus -78.7104 8.21942 -91.3877
rradius 78.4377
rwrist -11.3896
rhand -39.0962 48.8227
rfingers 7.12502
rthumb -12.0965 19.1924
lclavicle -7.95139e-016 2.5842e-015
lhumerus -30.3001 -27.8443 88.7779
lradius 116.484
lwrist 29.0872
lhand -33.2805 1.12856
lfingers 7.12502
lthumb -6.48498 31.0093
rfemur -38.782 10.6614 18.7839
rtibia 53.7572
rfoot -19.3931 -11.9623
rtoes -20.3381
lfemur 16.4063 -3.64115 -30.0553
ltibia 27.2932
lfoot 14.4427 4.35537
ltoes -20.2264
89
root 8.65937 18.1437 -1.75772 2.3495 0.355828 3.00884
lowerback 5.28539 -4.15798 -2.71905
upperback 0.22016 -5.69648 0.195813
thorax -2.44135 -2.8074 2.11937
lowerneck -14.612 3.46846 -2.22209
upperneck -4.07292 4.90676 -0.26749
head 1.11019 2.4544 0.546855
rclavicle -2.95692e-015 -1.49089e-014
rhumerus -78.9349 7.47562 -91.3088
rradius 79.0736
rwrist -11.3642
rhand -39.3577 48.6172
rfingers 7.12502
rthumb -12.3485 19.0019
lclavicle -2.95692e-015 -1.49089e-014
lhumerus -31.7645 -28.38 89.6789
lradius 116.348
lwrist 29.4787
lhand -32.9506 0.696437
lfingers 7.12502
lthumb -6.16656 30.5867
rfemur -37.9501 10.4585 18.0874
rtibia 49.7131
rfoot -20.0629 -11.4156
rtoes -21.4537
lfemur 16.1361 -3.15212 -30.3376
ltibia 29.2424
lfoot 13.0985 6.20613
ltoes -17.4057
90
root 8.65956 18.1735 -1.34019 2.35265 0.448285 3.31037
lowerback 5.19525 -4.1885 -2.6639
upperback 0.106184 -5.73837 0.0148122
thorax -2.53039 -2.82692 1.90534
lowerneck -13.725 3.5524 -3.84687
upperneck -4.97939 5.22584 1.44443
head 0.582305 2.68283 1.33623
rclavicle -1.94064e-014 1.23246e-014
rhumerus -78.8981 6.87537 -91.3471
rradius 79.6537
rwrist -11.6462
rhand -39.2874 48.6227
rfingers 7.12502
rthumb -12.2807 19.0033
lclavicle -1.94064e-014 1.23246e-014
lhumerus -33.273 -28.8481 90.459
lradius 116.165
lwrist 29.5993
lhand -32.8906 0.458255
lfingers 7.12502
lthumb -6.10857 30.3502
rfemur -36.937 10.5017 17.6913
rtibia 45.9253
rfoot -20.805 -11.0176
rtoes -24.2559
lfemur 15.8495 -2.6046 -30.3172
ltibia 31.3668
lfoot 11.7985 8.25861
ltoes -13.915
91
root 8.66326 18.1969 -0.922283 2.256 0.51268 3.64765
lowerback 5.07647 -4.21269 -2.64445
upperback 0.129015 -5.77064 -0.173662
thorax -2.4603 -2.84568 1.69326
lowerneck -14.023 3.48727 -3.38871
upperneck -4.74072 5.08239 0.756936
head 0.738804 2.58823 1.04643
rclavicle 7.03573e-014 3.77691e-015
rhumerus -78.645 6.34558 -91.4476
rradius 80.4121
rwrist -12.1775
rhand -38.9955 47.7007
rfingers 7.12502
rthumb -11.9993 18.0646
lclavicle 7.03573e-014 3.77691e-015
lhumerus -34.7298 -29.1801 91.2527
lradius 115.955
lwrist 29.5054
lhand -32.9774 0.0866808
lfingers 7.12502
lthumb -6.19237 29.9762
rfemur -35.7117 10.5223 17.2838
rtibia 42.4536
rfoot -21.0136 -10.2743
rtoes -20.5315
lfemur 15.5461 -2.01095 -30.3221
ltibia 33.6714
lfoot 10.6436 9.34006
ltoes -13.3958
92
root 8.67363 18.2146 -0.504514 2.13655 0.533054 4.07024
lowerback 4.9142 -4.21446 -2.76753
upperback 0.240617 -5.7755 -0.289731
thorax -2.25431 -2.85212 1.62316
lowerneck -14.7952 3.49953 -1.93033
upperneck -4.02667 4.91481 -1.18254
head 1.18635 2.42999 0.216202
rclavicle 6.79595e-014 1.39149e-014
rhumerus -78.2315 5.98096 -91.4986
rradius 81.16
rwrist -12.5554
rhand -39.1001 46.9705
rfingers 7.12502
rthumb -12.1001 17.3404
lclavicle 6.79595e-014 1.39149e-014
lhumerus -36.0661 -29.2722 92.2376
lradius 115.784
lwrist 29.4234
lhand -32.9096 -0.080765
lfingers 7.12502
lthumb -6.12693 29.8106
rfemur -34.4679 10.3858 16.8365
rtibia 39.4176
rfoot -20.8774 -9.55009
rtoes -23.0658
lfemur 15.1628 -1.23371 -30.3517
ltibia 36.1679
lfoot 9.66535 9.81794
ltoes -14.1761
